<svg viewBox="0 0 60 42" fill="none" xmlns="http://www.w3.org/2000/svg">
<path fill-rule="evenodd" clip-rule="evenodd" d="M18.6145 23.3804C19.6171 24.6054 22.167 29.1434 22.7083 31.4167H37.2917C37.8331 29.1452 40.38 24.6072 41.3826 23.3839C43.1002 21.2831 44.177 18.7497 44.489 16.0756C44.801 13.4014 44.3355 10.6953 43.1462 8.26904C41.957 5.8427 40.0922 3.79486 37.7668 2.3614C35.4414 0.927946 32.7498 0.167175 30.0023 0.166748C27.2548 0.166321 24.5631 0.926238 22.2372 2.35897C19.9114 3.7917 18.0458 5.83895 16.8558 8.26487C15.6657 10.6908 15.1993 13.3967 15.5105 16.071C15.8217 18.7453 16.8976 21.279 18.6145 23.3804ZM31.0417 8.50008L24.7917 17.8751H28.9583V24.1251L35.2083 14.7501H31.0417V8.50008Z" fill="#FFC962"/>
<path d="M22.7083 34.5417C22.7083 33.9664 23.1747 33.5 23.75 33.5H36.25C36.8253 33.5 37.2917 33.9664 37.2917 34.5417C37.2917 35.117 36.8253 35.5833 36.25 35.5833H23.75C23.1747 35.5833 22.7083 35.117 22.7083 34.5417Z" fill="#FFC962"/>
<path d="M37.2917 37.6667H22.7083V39.7501C22.7083 40.9007 23.6411 41.8334 24.7917 41.8334H35.2083C36.359 41.8334 37.2917 40.9007 37.2917 39.7501V37.6667Z" fill="#FFC962"/>
</svg>
