<svg viewBox="0 0 60 46" fill="none" xmlns="http://www.w3.org/2000/svg">
<path d="M45.4909 4.01411C44.5385 3.93911 43.5359 4.16411 42.6085 4.66411L20.9283 17.1641C18.5222 18.5641 17.7201 21.6641 19.0986 24.0141L22.8582 30.4891C24.2367 32.9141 27.2945 33.7141 29.7007 32.3391L34.2121 29.7391C34.8889 30.8891 35.8914 31.8141 37.1196 32.3391V36.7641C37.1196 39.4891 39.3502 41.6641 42.1323 41.6641H55.1405V36.7641H42.1323V32.3391C44.4131 31.3391 45.8919 29.0891 45.8919 26.6641C45.8919 25.5141 45.5911 24.4391 45.0397 23.4891L51.3809 19.8391C53.8121 18.4391 54.6392 15.4141 53.2356 12.9891L49.476 6.51411C48.6239 5.01411 47.095 4.16411 45.4909 4.01411ZM15.5897 24.5891L5.01276 26.3391L6.89255 29.5891L11.9053 38.2391L13.7851 41.4891L20.6025 33.2391L15.5897 24.5891Z" fill="#FFC962"/>
</svg>
