<svg width="50" height="50" viewBox="0 0 50 50" fill="none" xmlns="http://www.w3.org/2000/svg">
<path fill-rule="evenodd" clip-rule="evenodd" d="M50 5C50 2.23858 47.7614 0 45 0L5 0C2.23858 0 0 2.23858 0 5L0 45C0 47.7614 2.23858 50 5 50H45C47.7614 50 50 47.7614 50 45V5ZM17.6896 26.0607L27.2356 35.6066C27.8214 36.1924 28.7711 36.1924 29.3569 35.6066C29.9427 35.0208 29.9427 34.0711 29.3569 33.4853L24.4072 28.5355C22.4545 26.5829 22.4545 23.4171 24.4072 21.4645L29.3569 16.5147C29.9427 15.9289 29.9427 14.9792 29.3569 14.3934C28.7711 13.8076 27.8214 13.8076 27.2356 14.3934L17.6896 23.9393C17.1039 24.5251 17.1039 25.4749 17.6896 26.0607Z" fill="#343434"/>
</svg>
