<svg width="100" height="100" viewBox="0 0 100 100" fill="none" xmlns="http://www.w3.org/2000/svg">
<g clip-path="url(#clip0_750_401)">
<path d="M3.62348 100H41.552C41.912 100 42.2572 99.846 42.5117 99.5719C42.7662 99.2978 42.9092 98.9261 42.9092 98.5385V88.4615C42.9092 86.4214 43.6617 84.4648 45.0013 83.0223C46.3408 81.5797 48.1576 80.7692 50.052 80.7692C51.9464 80.7692 53.7633 81.5797 55.1028 83.0223C56.4424 84.4648 57.1949 86.4214 57.1949 88.4615V98.5385C57.1949 98.9261 57.3379 99.2978 57.5924 99.5719C57.8469 99.846 58.1921 100 58.552 100H96.2842C97.162 100.037 98.0234 99.7358 98.7138 99.1509C99.4043 98.5659 99.8787 97.7352 100.052 96.8077C100.141 96.2507 100.116 95.6794 99.9765 95.1344C99.8374 94.5894 99.5886 94.0842 99.2476 93.6545C98.9066 93.2249 98.4819 92.8814 98.0036 92.6487C97.5254 92.4159 97.0054 92.2995 96.4806 92.3077H96.3378C95.4284 92.3077 94.5564 91.9187 93.9134 91.2262C93.2704 90.5338 92.9092 89.5946 92.9092 88.6154V27.3077C92.8925 26.2454 93.2527 25.2163 93.9164 24.4301C94.58 23.644 95.4971 23.16 96.4806 23.0769C96.8498 23.0793 97.2134 22.9797 97.5367 22.7877C97.8601 22.5958 98.1323 22.3178 98.3275 21.9803C98.5227 21.6428 98.6343 21.257 98.6518 20.8599C98.6692 20.4627 98.5918 20.0674 98.427 19.7115L90.6056 2.73077C90.2225 1.91108 89.6358 1.22187 88.9107 0.739781C88.1856 0.257691 87.3506 0.00160747 86.4985 0H13.6056C12.7535 0.00160747 11.9185 0.257691 11.1934 0.739781C10.4683 1.22187 9.88161 1.91108 9.49848 2.73077L1.62348 19.7115C1.45644 20.0718 1.37906 20.4725 1.3989 20.8746C1.41874 21.2767 1.53512 21.6663 1.73666 22.0055C1.93821 22.3446 2.21802 22.6216 2.54874 22.8094C2.87946 22.9972 3.24977 23.0894 3.62348 23.0769C4.60702 23.16 5.5241 23.644 6.18773 24.4301C6.85136 25.2163 7.21157 26.2454 7.19491 27.3077V88.6731C7.19491 89.637 6.83933 90.5615 6.20639 91.2431C5.57346 91.9248 4.71501 92.3077 3.81991 92.3077C2.94206 92.2708 2.08071 92.5718 1.39026 93.1568C0.699804 93.7418 0.225389 94.5725 0.052051 95.5C-0.0372242 96.057 -0.0114212 96.6283 0.127624 97.1732C0.266669 97.7182 0.515538 98.2235 0.856525 98.6532C1.19751 99.0828 1.62223 99.4263 2.10047 99.659C2.57871 99.8918 3.09871 100.008 3.62348 100ZM67.9092 29.6731C67.9092 28.9437 68.1782 28.2443 68.6571 27.7285C69.136 27.2128 69.7855 26.9231 70.4628 26.9231H79.6235C79.9603 26.9205 80.2943 26.9898 80.6062 27.1269C80.918 27.2639 81.2017 27.4661 81.4407 27.7217C81.6797 27.9773 81.8694 28.2813 81.9988 28.6162C82.1283 28.9511 82.1949 29.3103 82.1949 29.6731V31.8462C82.1973 32.2089 82.1329 32.5686 82.0057 32.9044C81.8784 33.2403 81.6907 33.5457 81.4533 33.8031C81.216 34.0605 80.9337 34.2648 80.6227 34.4042C80.3117 34.5436 79.9782 34.6154 79.6413 34.6154H70.4628C70.1274 34.6154 69.7954 34.5443 69.4855 34.4061C69.1757 34.2679 68.8942 34.0653 68.6571 33.8099C68.42 33.5546 68.2319 33.2514 68.1036 32.9178C67.9752 32.5841 67.9092 32.2265 67.9092 31.8654V29.6731ZM67.9092 48.9038C67.9092 48.1745 68.1782 47.475 68.6571 46.9593C69.136 46.4436 69.7855 46.1538 70.4628 46.1538H79.6235C79.9603 46.1513 80.2943 46.2206 80.6062 46.3576C80.918 46.4947 81.2017 46.6969 81.4407 46.9525C81.6797 47.2081 81.8694 47.5121 81.9988 47.847C82.1283 48.1819 82.1949 48.5411 82.1949 48.9038V51.0769C82.1973 51.4397 82.1329 51.7993 82.0057 52.1352C81.8784 52.4711 81.6907 52.7765 81.4533 53.0339C81.216 53.2913 80.9337 53.4956 80.6227 53.635C80.3117 53.7744 79.9782 53.8462 79.6413 53.8462H70.4628C69.7855 53.8462 69.136 53.5564 68.6571 53.0407C68.1782 52.525 67.9092 51.8255 67.9092 51.0962V48.9038ZM67.9092 68.1346C67.9092 67.4053 68.1782 66.7058 68.6571 66.1901C69.136 65.6743 69.7855 65.3846 70.4628 65.3846H79.6235C79.9603 65.3821 80.2943 65.4513 80.6062 65.5884C80.918 65.7255 81.2017 65.9276 81.4407 66.1832C81.6797 66.4389 81.8694 66.7429 81.9988 67.0778C82.1283 67.4127 82.1949 67.7719 82.1949 68.1346V70.3077C82.1973 70.6704 82.1329 71.0301 82.0057 71.366C81.8784 71.7018 81.6907 72.0073 81.4533 72.2647C81.216 72.5221 80.9337 72.7264 80.6227 72.8658C80.3117 73.0052 79.9782 73.0769 79.6413 73.0769H70.4628C69.7855 73.0769 69.136 72.7872 68.6571 72.2715C68.1782 71.7557 67.9092 71.0563 67.9092 70.3269V68.1346ZM42.9092 29.6731C42.9092 28.9437 43.1782 28.2443 43.6571 27.7285C44.136 27.2128 44.7855 26.9231 45.4628 26.9231H54.6235C54.9603 26.9205 55.2943 26.9898 55.6062 27.1269C55.918 27.2639 56.2017 27.4661 56.4407 27.7217C56.6797 27.9773 56.8694 28.2813 56.9988 28.6162C57.1283 28.9511 57.1949 29.3103 57.1949 29.6731V31.8462C57.1973 32.2089 57.1329 32.5686 57.0057 32.9044C56.8784 33.2403 56.6907 33.5457 56.4533 33.8031C56.216 34.0605 55.9337 34.2648 55.6227 34.4042C55.3117 34.5436 54.9782 34.6154 54.6413 34.6154H45.4628C45.1274 34.6154 44.7954 34.5443 44.4856 34.4061C44.1757 34.2679 43.8942 34.0653 43.6571 33.8099C43.42 33.5546 43.2319 33.2514 43.1036 32.9178C42.9752 32.5841 42.9092 32.2265 42.9092 31.8654V29.6731ZM42.9092 48.9038C42.9092 48.1745 43.1782 47.475 43.6571 46.9593C44.136 46.4436 44.7855 46.1538 45.4628 46.1538H54.6235C54.9603 46.1513 55.2943 46.2206 55.6062 46.3576C55.918 46.4947 56.2017 46.6969 56.4407 46.9525C56.6797 47.2081 56.8694 47.5121 56.9988 47.847C57.1283 48.1819 57.1949 48.5411 57.1949 48.9038V51.0769C57.1973 51.4397 57.1329 51.7993 57.0057 52.1352C56.8784 52.4711 56.6907 52.7765 56.4533 53.0339C56.216 53.2913 55.9337 53.4956 55.6227 53.635C55.3117 53.7744 54.9782 53.8462 54.6413 53.8462H45.4628C44.7855 53.8462 44.136 53.5564 43.6571 53.0407C43.1782 52.525 42.9092 51.8255 42.9092 51.0962V48.9038ZM42.9092 68.1346C42.9092 67.4053 43.1782 66.7058 43.6571 66.1901C44.136 65.6743 44.7855 65.3846 45.4628 65.3846H54.6235C54.9603 65.3821 55.2943 65.4513 55.6062 65.5884C55.918 65.7255 56.2017 65.9276 56.4407 66.1832C56.6797 66.4389 56.8694 66.7429 56.9988 67.0778C57.1283 67.4127 57.1949 67.7719 57.1949 68.1346V70.3077C57.1973 70.6704 57.1329 71.0301 57.0057 71.366C56.8784 71.7018 56.6907 72.0073 56.4533 72.2647C56.216 72.5221 55.9337 72.7264 55.6227 72.8658C55.3117 73.0052 54.9782 73.0769 54.6413 73.0769H45.4628C44.7855 73.0769 44.136 72.7872 43.6571 72.2715C43.1782 71.7557 42.9092 71.0563 42.9092 70.3269V68.1346ZM17.9092 29.6731C17.9092 28.9437 18.1782 28.2443 18.6571 27.7285C19.136 27.2128 19.7855 26.9231 20.4628 26.9231H29.6235C29.9603 26.9205 30.2943 26.9898 30.6062 27.1269C30.918 27.2639 31.2017 27.4661 31.4407 27.7217C31.6797 27.9773 31.8694 28.2813 31.9988 28.6162C32.1283 28.9511 32.1949 29.3103 32.1949 29.6731V31.8462C32.1973 32.2089 32.1329 32.5686 32.0057 32.9044C31.8784 33.2403 31.6907 33.5457 31.4533 33.8031C31.216 34.0605 30.9337 34.2648 30.6227 34.4042C30.3117 34.5436 29.9782 34.6154 29.6413 34.6154H20.4628C20.1274 34.6154 19.7954 34.5443 19.4856 34.4061C19.1757 34.2679 18.8942 34.0653 18.6571 33.8099C18.42 33.5546 18.2319 33.2514 18.1036 32.9178C17.9752 32.5841 17.9092 32.2265 17.9092 31.8654V29.6731ZM17.9092 48.9038C17.9092 48.1745 18.1782 47.475 18.6571 46.9593C19.136 46.4436 19.7855 46.1538 20.4628 46.1538H29.6235C29.9603 46.1513 30.2943 46.2206 30.6062 46.3576C30.918 46.4947 31.2017 46.6969 31.4407 46.9525C31.6797 47.2081 31.8694 47.5121 31.9988 47.847C32.1283 48.1819 32.1949 48.5411 32.1949 48.9038V51.0769C32.1973 51.4397 32.1329 51.7993 32.0057 52.1352C31.8784 52.4711 31.6907 52.7765 31.4533 53.0339C31.216 53.2913 30.9337 53.4956 30.6227 53.635C30.3117 53.7744 29.9782 53.8462 29.6413 53.8462H20.4628C19.7855 53.8462 19.136 53.5564 18.6571 53.0407C18.1782 52.525 17.9092 51.8255 17.9092 51.0962V48.9038ZM17.9092 68.1346C17.9092 67.4053 18.1782 66.7058 18.6571 66.1901C19.136 65.6743 19.7855 65.3846 20.4628 65.3846H29.6235C29.9603 65.3821 30.2943 65.4513 30.6062 65.5884C30.918 65.7255 31.2017 65.9276 31.4407 66.1832C31.6797 66.4389 31.8694 66.7429 31.9988 67.0778C32.1283 67.4127 32.1949 67.7719 32.1949 68.1346V70.3077C32.1973 70.6704 32.1329 71.0301 32.0057 71.366C31.8784 71.7018 31.6907 72.0073 31.4533 72.2647C31.216 72.5221 30.9337 72.7264 30.6227 72.8658C30.3117 73.0052 29.9782 73.0769 29.6413 73.0769H20.4628C19.7855 73.0769 19.136 72.7872 18.6571 72.2715C18.1782 71.7557 17.9092 71.0563 17.9092 70.3269V68.1346Z" fill="#FFC962"/>
</g>
<defs>
<clipPath id="clip0_750_401">
<rect width="100" height="100" fill="white"/>
</clipPath>
</defs>
</svg>
