<svg width="41" height="41" viewBox="0 0 41 41" fill="none" xmlns="http://www.w3.org/2000/svg">
<circle cx="20.5" cy="20.5" r="20.5" fill="#E03A3E"/>
<path d="M20.4941 10.0833C18.4338 10.0833 16.4199 10.6942 14.7069 11.8388C12.9939 12.9834 11.6587 14.6103 10.8703 16.5137C10.0819 18.4171 9.87562 20.5115 10.2776 22.5322C10.6795 24.5528 11.6716 26.4089 13.1284 27.8657C14.5852 29.3225 16.4412 30.3146 18.4619 30.7165C20.4825 31.1184 22.577 30.9121 24.4804 30.1237C26.3837 29.3353 28.0106 28.0002 29.1552 26.2872C30.2998 24.5742 30.9107 22.5602 30.9107 20.5C30.9108 19.132 30.6415 17.7774 30.118 16.5136C29.5946 15.2497 28.8273 14.1013 27.86 13.134C26.8927 12.1667 25.7443 11.3994 24.4805 10.876C23.2166 10.3526 21.862 10.0832 20.4941 10.0833V10.0833ZM23.8061 25.8671C23.7671 25.9644 23.7077 26.0521 23.6321 26.1245C23.5564 26.1969 23.4661 26.2524 23.3673 26.287C23.2684 26.3217 23.1633 26.3348 23.059 26.3256C22.9546 26.3163 22.8535 26.2848 22.7623 26.2333L19.9345 24.036L18.1196 25.7104C18.0775 25.7415 18.0282 25.7615 17.9764 25.7686C17.9245 25.7757 17.8716 25.7696 17.8227 25.751L18.1706 22.638L18.1818 22.6468L18.1889 22.5854C18.1889 22.5854 23.2774 17.9525 23.4847 17.7551C23.6946 17.5583 23.6254 17.5156 23.6254 17.5156C23.6373 17.2754 23.2488 17.5156 23.2488 17.5156L16.5066 21.8531L13.6988 20.8969C13.6988 20.8969 13.2675 20.7422 13.2269 20.4021C13.1842 20.0646 13.7128 19.8812 13.7128 19.8812L24.8764 15.4463C24.8764 15.4463 25.7941 15.0374 25.7941 15.7146L23.8061 25.8671Z" fill="white"/>
</svg>
