<svg width="41" height="41" viewBox="0 0 41 41" fill="none" xmlns="http://www.w3.org/2000/svg">
<circle cx="20.5" cy="20.5" r="20.5" fill="#E03A3E"/>
<path d="M24.3997 22.093C24.0954 21.764 23.7537 21.4717 23.3816 21.2221C24.8834 20.0609 25.9358 18.4147 26.3595 16.5642C26.3907 16.4305 26.3952 16.2919 26.3727 16.1564C26.3503 16.021 26.3012 15.8913 26.2284 15.7748C26.1556 15.6584 26.0605 15.5575 25.9485 15.4779C25.8366 15.3984 25.71 15.3418 25.5761 15.3113C25.4422 15.2809 25.3035 15.2772 25.1682 15.3005C25.0329 15.3239 24.9035 15.3737 24.7875 15.4472C24.6715 15.5208 24.5712 15.6165 24.4923 15.7289C24.4135 15.8414 24.3576 15.9683 24.328 16.1024C24.1307 16.968 23.747 17.7801 23.2036 18.4822C22.6601 19.1842 21.9701 19.7593 21.1816 20.1673L21.1816 16.3354C21.1752 16.2588 21.1599 16.1831 21.1361 16.11C21.1292 16.0497 21.1172 15.9902 21.1002 15.932C21.0557 15.8373 20.9972 15.7498 20.9264 15.6727C20.9078 15.6506 20.8984 15.6214 20.878 15.601C20.8017 15.5305 20.7153 15.4719 20.6217 15.4269C20.5951 15.4128 20.5754 15.3888 20.5474 15.3769C20.4676 15.3503 20.385 15.3333 20.3011 15.3263C20.2494 15.3111 20.1965 15.3003 20.143 15.2938L19.4615 15.2917L19.4584 15.2917C19.2147 15.2905 18.9784 15.3752 18.791 15.5309C18.6035 15.6867 18.4769 15.9034 18.4334 16.1432C18.3899 16.383 18.4322 16.6304 18.553 16.8421C18.6737 17.0537 18.8652 17.2161 19.0937 17.3007L19.0937 22.3951C17.443 20.6816 16.35 18.5083 15.9586 16.1614C15.9357 16.0266 15.8865 15.8976 15.8138 15.7817C15.7411 15.6659 15.6463 15.5655 15.5348 15.4863C15.4233 15.4071 15.2972 15.3506 15.1639 15.3201C15.0306 15.2896 14.8925 15.2856 14.7577 15.3085C14.6228 15.3313 14.4938 15.3805 14.3779 15.4532C14.2621 15.5259 14.1617 15.6208 14.0825 15.7323C14.0033 15.8438 13.9468 15.9698 13.9163 16.1031C13.8858 16.2365 13.8819 16.3745 13.9047 16.5094C14.5135 20.137 16.5364 23.3751 19.5296 25.5131C19.5723 25.5386 19.6168 25.5611 19.6628 25.5802C19.6988 25.6014 19.7362 25.6202 19.7747 25.6367C19.891 25.6831 20.0148 25.7081 20.14 25.7104C20.2932 25.7085 20.4441 25.6723 20.5815 25.6043C20.5918 25.5994 20.6037 25.6017 20.614 25.5965C20.7061 25.5485 20.7904 25.487 20.8641 25.4139C20.8789 25.3994 20.8889 25.3817 20.9028 25.3664C20.9701 25.2926 21.0262 25.2094 21.0694 25.1194C21.0839 25.0895 21.0971 25.061 21.1088 25.0295C21.1546 24.9146 21.1792 24.7924 21.1816 24.6687L21.1822 22.4542C21.8276 22.6437 22.4091 23.0056 22.8642 23.5009L24.5808 25.3726C24.6731 25.4738 24.7845 25.5557 24.9086 25.6138C25.0326 25.6718 25.1669 25.7048 25.3038 25.7109C25.4406 25.7169 25.5773 25.6959 25.706 25.6491C25.8347 25.6023 25.9529 25.5305 26.0538 25.438C26.1548 25.3454 26.2365 25.2338 26.2942 25.1096C26.352 24.9854 26.3847 24.8511 26.3904 24.7142C26.3962 24.5774 26.3749 24.4407 26.3278 24.3121C26.2806 24.1835 26.2086 24.0655 26.1158 23.9648L24.3997 22.093ZM23.7009 9.04166L17.31 9.04166C10.8962 9.04166 9.04175 10.8941 9.04175 17.2987L9.04175 23.6901C9.04175 30.1039 10.8937 31.9583 17.2993 31.9583L23.6902 31.9583C30.104 31.9583 31.9584 30.1059 31.9584 23.7013L31.9584 17.3099C31.9584 10.8961 30.1065 9.04166 23.7009 9.04166ZM29.8751 23.7013C29.8751 28.9513 28.9504 29.875 23.6902 29.875L17.2993 29.875C12.0482 29.875 11.1251 28.9503 11.1251 23.6901L11.1251 17.2987C11.1251 12.0487 12.0498 11.125 17.31 11.125L23.7009 11.125C28.9519 11.125 29.8751 12.0497 29.8751 17.3099L29.8751 23.7013Z" fill="white"/>
</svg>
