<svg width="41" height="41" viewBox="0 0 41 41" fill="none" xmlns="http://www.w3.org/2000/svg">
<circle cx="20.5" cy="20.5" r="20.5" fill="#E03A3E"/>
<path d="M25.2916 22.5833C25.0833 22.4792 23.7291 21.8542 23.5208 21.75C23.3124 21.6458 23.1041 21.6458 22.8958 21.8542C22.6874 22.0625 22.2708 22.6875 22.0624 22.8958C21.9583 23.1042 21.7499 23.1042 21.5416 23C20.8124 22.6875 20.0833 22.2708 19.4583 21.75C18.9374 21.2292 18.4166 20.6042 17.9999 19.9792C17.8958 19.7708 17.9999 19.5625 18.1041 19.4583C18.2083 19.3542 18.3124 19.1458 18.5208 19.0417C18.6249 18.9375 18.7291 18.7292 18.7291 18.625C18.8333 18.5208 18.8333 18.3125 18.7291 18.2083C18.6249 18.1042 18.1041 16.8542 17.8958 16.3333C17.7916 15.6042 17.5833 15.6042 17.3749 15.6042C17.2708 15.6042 17.0624 15.6042 16.8541 15.6042C16.6458 15.6042 16.3333 15.8125 16.2291 15.9167C15.6041 16.5417 15.2916 17.2708 15.2916 18.1042C15.3958 19.0417 15.7083 19.9792 16.3333 20.8125C17.4791 22.4792 18.9374 23.8333 20.7083 24.6667C21.2291 24.875 21.6458 25.0833 22.1666 25.1875C22.6874 25.3958 23.2083 25.3958 23.8333 25.2917C24.5624 25.1875 25.1874 24.6667 25.6041 24.0417C25.8124 23.625 25.8124 23.2083 25.7083 22.7917C25.7083 22.7917 25.4999 22.6875 25.2916 22.5833ZM27.8958 13.1042C23.8333 9.04166 17.2708 9.04166 13.2083 13.1042C9.87492 16.4375 9.24992 21.5417 11.5416 25.6042L10.0833 30.9167L15.6041 29.4583C17.1666 30.2917 18.8333 30.7083 20.4999 30.7083C26.2291 30.7083 30.8124 26.125 30.8124 20.3958C30.9166 17.6875 29.7708 15.0833 27.8958 13.1042ZM25.0833 27.6875C23.7291 28.5208 22.1666 29.0417 20.4999 29.0417C18.9374 29.0417 17.4791 28.625 16.1249 27.8958L15.8124 27.6875L12.5833 28.5208L13.4166 25.3958L13.2083 25.0833C10.7083 20.9167 11.9583 15.7083 16.0208 13.1042C20.0833 10.5 25.2916 11.8542 27.7916 15.8125C30.2916 19.875 29.1458 25.1875 25.0833 27.6875Z" fill="#FFEBEB"/>
</svg>
